<svg xmlns="http://www.w3.org/2000/svg" id="diagram" width="310" height="310">
  <defs>
    <clipPath id="clipPath-0">
      <rect x="5.0" y="5.0" width="300.0" height="300.0"/>
    </clipPath>
    <clipPath id="clipPath-1">
      <rect x="5.0" y="5.0" width="300.0" height="300.0"/>
    </clipPath>
  </defs>
  <g id="grid-axes">
    <g id="grid" stroke="#ccc" stroke-width="1">
      <line id="line-0" x1="5.0" y1="305.0" x2="5.0" y2="5.0"/>
      <line id="line-1" x1="35.0" y1="305.0" x2="35.0" y2="5.0"/>
      <line id="line-2" x1="65.0" y1="305.0" x2="65.0" y2="5.0"/>
      <line id="line-3" x1="95.0" y1="305.0" x2="95.0" y2="5.0"/>
      <line id="line-4" x1="125.0" y1="305.0" x2="125.0" y2="5.0"/>
      <line id="line-5" x1="155.0" y1="305.0" x2="155.0" y2="5.0"/>
      <line id="line-6" x1="185.0" y1="305.0" x2="185.0" y2="5.0"/>
      <line id="line-7" x1="215.0" y1="305.0" x2="215.0" y2="5.0"/>
      <line id="line-8" x1="245.0" y1="305.0" x2="245.0" y2="5.0"/>
      <line id="line-9" x1="275.0" y1="305.0" x2="275.0" y2="5.0"/>
      <line id="line-10" x1="305.0" y1="305.0" x2="305.0" y2="5.0"/>
      <line id="line-11" x1="5.0" y1="305.0" x2="305.0" y2="305.0"/>
      <line id="line-12" x1="5.0" y1="277.7" x2="305.0" y2="277.7"/>
      <line id="line-13" x1="5.0" y1="250.5" x2="305.0" y2="250.5"/>
      <line id="line-14" x1="5.0" y1="223.2" x2="305.0" y2="223.2"/>
      <line id="line-15" x1="5.0" y1="195.9" x2="305.0" y2="195.9"/>
      <line id="line-16" x1="5.0" y1="168.6" x2="305.0" y2="168.6"/>
      <line id="line-17" x1="5.0" y1="141.4" x2="305.0" y2="141.4"/>
      <line id="line-18" x1="5.0" y1="114.1" x2="305.0" y2="114.1"/>
      <line id="line-19" x1="5.0" y1="86.8" x2="305.0" y2="86.8"/>
      <line id="line-20" x1="5.0" y1="59.5" x2="305.0" y2="59.5"/>
      <line id="line-21" x1="5.0" y1="32.3" x2="305.0" y2="32.3"/>
      <line id="line-22" x1="5.0" y1="5.0" x2="305.0" y2="5.0"/>
    </g>
    <g id="axes" stroke="black" stroke-width="2">
      <line id="line-23" x1="5.0" y1="277.7" x2="305.0" y2="277.7" stroke="black" stroke-width="2"/>
      <line id="line-24" x1="155.0" y1="305.0" x2="155.0" y2="5.0" stroke="black" stroke-width="2"/>
      <g id="g-0">
        <line id="line-25" x1="35.0" y1="280.7" x2="35.0" y2="274.7"/>
        <line id="line-26" x1="95.0" y1="280.7" x2="95.0" y2="274.7"/>
        <line id="line-27" x1="215.0" y1="280.7" x2="215.0" y2="274.7"/>
        <line id="line-28" x1="275.0" y1="280.7" x2="275.0" y2="274.7"/>
      </g>
      <g id="g-1">
        <line id="line-29" x1="152.0" y1="223.2" x2="158.0" y2="223.2"/>
        <line id="line-30" x1="152.0" y1="168.6" x2="158.0" y2="168.6"/>
        <line id="line-31" x1="152.0" y1="114.1" x2="158.0" y2="114.1"/>
        <line id="line-32" x1="152.0" y1="59.5" x2="158.0" y2="59.5"/>
      </g>
    </g>
    <g id="label-0" transform="translate(35.0,288.7) translate(-7.5,-0.0)">
      <g id="g-2">
        <svg xmlns:xlink="http://www.w3.org/1999/xlink" style="vertical-align: 0.000px" width="15.080px" height="12.256px" role="img" focusable="false" viewBox="0 -677 833 677" x="0.0" y="0.0">
          <defs>
            <path id="MJX-2-TEX-N-2D" d="M11 179V252H277V179H11Z"/>
            <path id="MJX-2-TEX-N-34" d="M462 0Q444 3 333 3Q217 3 199 0H190V46H221Q241 46 248 46T265 48T279 53T286 61Q287 63 287 115V165H28V211L179 442Q332 674 334 675Q336 677 355 677H373L379 671V211H471V165H379V114Q379 73 379 66T385 54Q393 47 442 46H471V0H462ZM293 211V545L74 212L183 211H293Z"/>
          </defs>
          <g stroke="currentColor" fill="currentColor" stroke-width="0" transform="scale(1,-1)">
            <g data-mml-node="math">
              <g data-mml-node="mtext" data-semantic-type="text" data-semantic-role="unknown" data-semantic-font="normal" data-semantic-annotation="clearspeak:unit" data-semantic-id="0" data-semantic-speech="hyphen 4">
                <use data-c="2D" xlink:href="#MJX-2-TEX-N-2D"/>
                <use data-c="34" xlink:href="#MJX-2-TEX-N-34" transform="translate(333,0)"/>
              </g>
            </g>
          </g>
        </svg>
      </g>
    </g>
    <g id="label-1" transform="translate(95.0,288.7) translate(-7.5,-0.0)">
      <g id="g-3">
        <svg xmlns:xlink="http://www.w3.org/1999/xlink" style="vertical-align: 0.000px" width="15.080px" height="12.056px" role="img" focusable="false" viewBox="0 -666 833 666" x="0.0" y="0.0">
          <defs>
            <path id="MJX-3-TEX-N-2D" d="M11 179V252H277V179H11Z"/>
            <path id="MJX-3-TEX-N-32" d="M109 429Q82 429 66 447T50 491Q50 562 103 614T235 666Q326 666 387 610T449 465Q449 422 429 383T381 315T301 241Q265 210 201 149L142 93L218 92Q375 92 385 97Q392 99 409 186V189H449V186Q448 183 436 95T421 3V0H50V19V31Q50 38 56 46T86 81Q115 113 136 137Q145 147 170 174T204 211T233 244T261 278T284 308T305 340T320 369T333 401T340 431T343 464Q343 527 309 573T212 619Q179 619 154 602T119 569T109 550Q109 549 114 549Q132 549 151 535T170 489Q170 464 154 447T109 429Z"/>
          </defs>
          <g stroke="currentColor" fill="currentColor" stroke-width="0" transform="scale(1,-1)">
            <g data-mml-node="math">
              <g data-mml-node="mtext" data-semantic-type="text" data-semantic-role="unknown" data-semantic-font="normal" data-semantic-annotation="clearspeak:unit" data-semantic-id="0" data-semantic-speech="hyphen 2">
                <use data-c="2D" xlink:href="#MJX-3-TEX-N-2D"/>
                <use data-c="32" xlink:href="#MJX-3-TEX-N-32" transform="translate(333,0)"/>
              </g>
            </g>
          </g>
        </svg>
      </g>
    </g>
    <g id="label-2" transform="translate(215.0,288.7) translate(-4.5,-0.0)">
      <g id="g-4">
        <svg xmlns:xlink="http://www.w3.org/1999/xlink" style="vertical-align: 0.000px" width="9.048px" height="12.056px" role="img" focusable="false" viewBox="0 -666 500 666" x="0.0" y="0.0">
          <defs>
            <path id="MJX-4-TEX-N-32" d="M109 429Q82 429 66 447T50 491Q50 562 103 614T235 666Q326 666 387 610T449 465Q449 422 429 383T381 315T301 241Q265 210 201 149L142 93L218 92Q375 92 385 97Q392 99 409 186V189H449V186Q448 183 436 95T421 3V0H50V19V31Q50 38 56 46T86 81Q115 113 136 137Q145 147 170 174T204 211T233 244T261 278T284 308T305 340T320 369T333 401T340 431T343 464Q343 527 309 573T212 619Q179 619 154 602T119 569T109 550Q109 549 114 549Q132 549 151 535T170 489Q170 464 154 447T109 429Z"/>
          </defs>
          <g stroke="currentColor" fill="currentColor" stroke-width="0" transform="scale(1,-1)">
            <g data-mml-node="math">
              <g data-mml-node="mtext" data-semantic-type="text" data-semantic-role="integer" data-semantic-font="normal" data-semantic-annotation="clearspeak:unit" data-semantic-id="0" data-semantic-speech="2">
                <use data-c="32" xlink:href="#MJX-4-TEX-N-32"/>
              </g>
            </g>
          </g>
        </svg>
      </g>
    </g>
    <g id="label-3" transform="translate(275.0,288.7) translate(-4.5,-0.0)">
      <g id="g-5">
        <svg xmlns:xlink="http://www.w3.org/1999/xlink" style="vertical-align: 0.000px" width="9.048px" height="12.256px" role="img" focusable="false" viewBox="0 -677 500 677" x="0.0" y="0.0">
          <defs>
            <path id="MJX-5-TEX-N-34" d="M462 0Q444 3 333 3Q217 3 199 0H190V46H221Q241 46 248 46T265 48T279 53T286 61Q287 63 287 115V165H28V211L179 442Q332 674 334 675Q336 677 355 677H373L379 671V211H471V165H379V114Q379 73 379 66T385 54Q393 47 442 46H471V0H462ZM293 211V545L74 212L183 211H293Z"/>
          </defs>
          <g stroke="currentColor" fill="currentColor" stroke-width="0" transform="scale(1,-1)">
            <g data-mml-node="math">
              <g data-mml-node="mtext" data-semantic-type="text" data-semantic-role="integer" data-semantic-font="normal" data-semantic-annotation="clearspeak:unit" data-semantic-id="0" data-semantic-speech="4">
                <use data-c="34" xlink:href="#MJX-5-TEX-N-34"/>
              </g>
            </g>
          </g>
        </svg>
      </g>
    </g>
    <g id="label-4" transform="translate(144.0,223.2) translate(-9.0,-6.0)">
      <g id="g-6">
        <svg xmlns:xlink="http://www.w3.org/1999/xlink" style="vertical-align: 0.000px" width="9.048px" height="12.056px" role="img" focusable="false" viewBox="0 -666 500 666" x="0.0" y="0.0">
          <defs>
            <path id="MJX-6-TEX-N-32" d="M109 429Q82 429 66 447T50 491Q50 562 103 614T235 666Q326 666 387 610T449 465Q449 422 429 383T381 315T301 241Q265 210 201 149L142 93L218 92Q375 92 385 97Q392 99 409 186V189H449V186Q448 183 436 95T421 3V0H50V19V31Q50 38 56 46T86 81Q115 113 136 137Q145 147 170 174T204 211T233 244T261 278T284 308T305 340T320 369T333 401T340 431T343 464Q343 527 309 573T212 619Q179 619 154 602T119 569T109 550Q109 549 114 549Q132 549 151 535T170 489Q170 464 154 447T109 429Z"/>
          </defs>
          <g stroke="currentColor" fill="currentColor" stroke-width="0" transform="scale(1,-1)">
            <g data-mml-node="math">
              <g data-mml-node="mtext" data-semantic-type="text" data-semantic-role="integer" data-semantic-font="normal" data-semantic-annotation="clearspeak:unit" data-semantic-id="0" data-semantic-speech="2">
                <use data-c="32" xlink:href="#MJX-6-TEX-N-32"/>
              </g>
            </g>
          </g>
        </svg>
      </g>
    </g>
    <g id="label-5" transform="translate(144.0,168.6) translate(-9.0,-6.1)">
      <g id="g-7">
        <svg xmlns:xlink="http://www.w3.org/1999/xlink" style="vertical-align: 0.000px" width="9.048px" height="12.256px" role="img" focusable="false" viewBox="0 -677 500 677" x="0.0" y="0.0">
          <defs>
            <path id="MJX-7-TEX-N-34" d="M462 0Q444 3 333 3Q217 3 199 0H190V46H221Q241 46 248 46T265 48T279 53T286 61Q287 63 287 115V165H28V211L179 442Q332 674 334 675Q336 677 355 677H373L379 671V211H471V165H379V114Q379 73 379 66T385 54Q393 47 442 46H471V0H462ZM293 211V545L74 212L183 211H293Z"/>
          </defs>
          <g stroke="currentColor" fill="currentColor" stroke-width="0" transform="scale(1,-1)">
            <g data-mml-node="math">
              <g data-mml-node="mtext" data-semantic-type="text" data-semantic-role="integer" data-semantic-font="normal" data-semantic-annotation="clearspeak:unit" data-semantic-id="0" data-semantic-speech="4">
                <use data-c="34" xlink:href="#MJX-7-TEX-N-34"/>
              </g>
            </g>
          </g>
        </svg>
      </g>
    </g>
    <g id="label-6" transform="translate(144.0,114.1) translate(-9.0,-6.2)">
      <g id="g-8">
        <svg xmlns:xlink="http://www.w3.org/1999/xlink" style="vertical-align: -0.400px" width="9.048px" height="12.456px" role="img" focusable="false" viewBox="0 -666 500 688" x="0.0" y="0.0">
          <defs>
            <path id="MJX-8-TEX-N-36" d="M42 313Q42 476 123 571T303 666Q372 666 402 630T432 550Q432 525 418 510T379 495Q356 495 341 509T326 548Q326 592 373 601Q351 623 311 626Q240 626 194 566Q147 500 147 364L148 360Q153 366 156 373Q197 433 263 433H267Q313 433 348 414Q372 400 396 374T435 317Q456 268 456 210V192Q456 169 451 149Q440 90 387 34T253 -22Q225 -22 199 -14T143 16T92 75T56 172T42 313ZM257 397Q227 397 205 380T171 335T154 278T148 216Q148 133 160 97T198 39Q222 21 251 21Q302 21 329 59Q342 77 347 104T352 209Q352 289 347 316T329 361Q302 397 257 397Z"/>
          </defs>
          <g stroke="currentColor" fill="currentColor" stroke-width="0" transform="scale(1,-1)">
            <g data-mml-node="math">
              <g data-mml-node="mtext" data-semantic-type="text" data-semantic-role="integer" data-semantic-font="normal" data-semantic-annotation="clearspeak:unit" data-semantic-id="0" data-semantic-speech="6">
                <use data-c="36" xlink:href="#MJX-8-TEX-N-36"/>
              </g>
            </g>
          </g>
        </svg>
      </g>
    </g>
    <g id="label-7" transform="translate(144.0,59.5) translate(-9.0,-6.2)">
      <g id="g-9">
        <svg xmlns:xlink="http://www.w3.org/1999/xlink" style="vertical-align: -0.400px" width="9.048px" height="12.456px" role="img" focusable="false" viewBox="0 -666 500 688" x="0.0" y="0.0">
          <defs>
            <path id="MJX-9-TEX-N-38" d="M70 417T70 494T124 618T248 666Q319 666 374 624T429 515Q429 485 418 459T392 417T361 389T335 371T324 363L338 354Q352 344 366 334T382 323Q457 264 457 174Q457 95 399 37T249 -22Q159 -22 101 29T43 155Q43 263 172 335L154 348Q133 361 127 368Q70 417 70 494ZM286 386L292 390Q298 394 301 396T311 403T323 413T334 425T345 438T355 454T364 471T369 491T371 513Q371 556 342 586T275 624Q268 625 242 625Q201 625 165 599T128 534Q128 511 141 492T167 463T217 431Q224 426 228 424L286 386ZM250 21Q308 21 350 55T392 137Q392 154 387 169T375 194T353 216T330 234T301 253T274 270Q260 279 244 289T218 306L210 311Q204 311 181 294T133 239T107 157Q107 98 150 60T250 21Z"/>
          </defs>
          <g stroke="currentColor" fill="currentColor" stroke-width="0" transform="scale(1,-1)">
            <g data-mml-node="math">
              <g data-mml-node="mtext" data-semantic-type="text" data-semantic-role="integer" data-semantic-font="normal" data-semantic-annotation="clearspeak:unit" data-semantic-id="0" data-semantic-speech="8">
                <use data-c="38" xlink:href="#MJX-9-TEX-N-38"/>
              </g>
            </g>
          </g>
        </svg>
      </g>
    </g>
    <g id="label-8" transform="translate(301.0,273.7) translate(-10.4,-8.2)">
      <g id="g-10">
        <svg xmlns:xlink="http://www.w3.org/1999/xlink" style="vertical-align: -0.200px" width="10.352px" height="8.200px" role="img" focusable="false" viewBox="0 -442 572 453" x="0.0" y="0.0">
          <defs>
            <path id="MJX-10-TEX-I-1D465" d="M52 289Q59 331 106 386T222 442Q257 442 286 424T329 379Q371 442 430 442Q467 442 494 420T522 361Q522 332 508 314T481 292T458 288Q439 288 427 299T415 328Q415 374 465 391Q454 404 425 404Q412 404 406 402Q368 386 350 336Q290 115 290 78Q290 50 306 38T341 26Q378 26 414 59T463 140Q466 150 469 151T485 153H489Q504 153 504 145Q504 144 502 134Q486 77 440 33T333 -11Q263 -11 227 52Q186 -10 133 -10H127Q78 -10 57 16T35 71Q35 103 54 123T99 143Q142 143 142 101Q142 81 130 66T107 46T94 41L91 40Q91 39 97 36T113 29T132 26Q168 26 194 71Q203 87 217 139T245 247T261 313Q266 340 266 352Q266 380 251 392T217 404Q177 404 142 372T93 290Q91 281 88 280T72 278H58Q52 284 52 289Z"/>
          </defs>
          <g stroke="currentColor" fill="currentColor" stroke-width="0" transform="scale(1,-1)">
            <g data-mml-node="math">
              <g data-mml-node="mi" data-semantic-type="identifier" data-semantic-role="latinletter" data-semantic-font="italic" data-semantic-annotation="clearspeak:simple" data-semantic-id="0" data-semantic-speech="x">
                <use data-c="1D465" xlink:href="#MJX-10-TEX-I-1D465"/>
              </g>
            </g>
          </g>
        </svg>
      </g>
    </g>
    <g id="label-9" transform="translate(159.0,9.0) translate(0.0,-0.0)">
      <g id="g-11">
        <svg xmlns:xlink="http://www.w3.org/1999/xlink" style="vertical-align: -3.712px" width="8.872px" height="11.712px" role="img" focusable="false" viewBox="0 -442 490 647" x="0.0" y="0.0">
          <defs>
            <path id="MJX-11-TEX-I-1D466" d="M21 287Q21 301 36 335T84 406T158 442Q199 442 224 419T250 355Q248 336 247 334Q247 331 231 288T198 191T182 105Q182 62 196 45T238 27Q261 27 281 38T312 61T339 94Q339 95 344 114T358 173T377 247Q415 397 419 404Q432 431 462 431Q475 431 483 424T494 412T496 403Q496 390 447 193T391 -23Q363 -106 294 -155T156 -205Q111 -205 77 -183T43 -117Q43 -95 50 -80T69 -58T89 -48T106 -45Q150 -45 150 -87Q150 -107 138 -122T115 -142T102 -147L99 -148Q101 -153 118 -160T152 -167H160Q177 -167 186 -165Q219 -156 247 -127T290 -65T313 -9T321 21L315 17Q309 13 296 6T270 -6Q250 -11 231 -11Q185 -11 150 11T104 82Q103 89 103 113Q103 170 138 262T173 379Q173 380 173 381Q173 390 173 393T169 400T158 404H154Q131 404 112 385T82 344T65 302T57 280Q55 278 41 278H27Q21 284 21 287Z"/>
          </defs>
          <g stroke="currentColor" fill="currentColor" stroke-width="0" transform="scale(1,-1)">
            <g data-mml-node="math">
              <g data-mml-node="mi" data-semantic-type="identifier" data-semantic-role="latinletter" data-semantic-font="italic" data-semantic-annotation="clearspeak:simple" data-semantic-id="0" data-semantic-speech="y">
                <use data-c="1D466" xlink:href="#MJX-11-TEX-I-1D466"/>
              </g>
            </g>
          </g>
        </svg>
      </g>
    </g>
  </g>
  <circle id="circle-0" cx="65.0" cy="32.3" r="4" stroke="black" stroke-width="2" fill="red"/>
  <circle id="circle-1" cx="95.0" cy="168.6" r="4" stroke="black" stroke-width="2" fill="red"/>
  <circle id="circle-2" cx="125.0" cy="250.5" r="4" stroke="black" stroke-width="2" fill="red"/>
  <circle id="circle-3" cx="155.0" cy="277.7" r="4" stroke="black" stroke-width="2" fill="red"/>
  <circle id="circle-4" cx="185.0" cy="250.5" r="4" stroke="black" stroke-width="2" fill="red"/>
  <circle id="circle-5" cx="215.0" cy="168.6" r="4" stroke="black" stroke-width="2" fill="red"/>
  <circle id="circle-6" cx="245.0" cy="32.3" r="4" stroke="black" stroke-width="2" fill="red"/>
</svg>
